<svg width="1536" height="1024" viewBox="0 0 1536 1024" fill="none" xmlns="http://www.w3.org/2000/svg">
<path d="M1536 1024H354L1132 1023.5H1132.63L1132.49 1022.88L1121.99 978.385L1121.98 978.376L1121.98 978.366L1112.99 945.881L1100.49 888.405L1089.49 831.405L1089.49 831.396L1089.49 831.387L1080.99 794.887L1080.99 794.886L1073.49 762.886L1073.47 762.834L1073.45 762.786L1056.45 726.786L1056.43 726.745L1056.41 726.708L1040.91 705.208L1040.84 705.113L1040.74 705.059L877.352 618.12L840.924 559.735L840.857 559.628L840.748 559.565L825.036 550.587L831.446 498.46L841.548 497.498L841.786 497.475L841.918 497.274L851.418 482.774L851.44 482.74L851.457 482.702L864.957 452.202L864.992 452.122L864.999 452.035L867.499 416.535L867.529 416.096L867.098 416.01L857.626 414.115L864.481 389.635L864.486 389.619L864.489 389.603L872.489 351.603L872.504 351.533L872.499 351.463L869.999 317.963L869.989 317.841L869.926 317.737L848.926 283.737L848.908 283.71L848.888 283.685L837.888 270.185L837.862 270.152L837.831 270.126L811.831 247.126L811.743 247.047L811.629 247.017L781.629 239.017H781.628L771.138 236.02L771.097 236.008L771.054 236.003L752.554 234.003L752.538 234.001L752.521 234L741.021 233.5L740.928 233.496L740.838 233.527L721.863 240.019L707.504 243.979L692.644 239.521L692.445 239.462L692.263 239.56L665.19 254.173L668.968 244.177L668.032 243.823L663.782 255.073L659.798 265.618L650.345 256.638L649.526 257.161L657.302 280H647.835L647.702 280.099L634.202 290.099L634.094 290.179L634.04 290.303L628.04 304.303L627.7 305.098L628.559 304.996L635.936 304.128L629.093 313.709L629.074 313.736L629.059 313.766L620.559 329.766L620.51 329.856L620.502 329.96L618.002 360.96L617.958 361.5H622.118L622.224 361.447L626.552 359.282L629.464 401.5H626.327L626.191 401.606L619.191 407.106L618.968 407.282L619.004 407.564L620.504 419.064L626.003 470.054L626.017 470.182L626.091 470.287L629.591 475.287L629.594 475.292L643.594 494.792L643.782 495.054L644.098 494.99L647.848 494.24L651.071 493.595L656.004 532.063L656.015 532.146L656.052 532.222L667.856 556.036L641.722 573.585L641.611 573.658L641.553 573.776L629.585 597.711L611.209 617.08L519.305 656.04L519.281 656.05L519.259 656.062L444.759 697.062L444.71 697.089L444.669 697.126L431.669 708.626L431.616 708.672L431.578 708.731L417.578 730.731L417.539 730.794L417.519 730.864L398.519 798.364L398.516 798.377L398.513 798.389C395.011 813.731 381.109 880.206 353.509 1023.41L353.395 1024H0V0H1536V1024Z" fill="black"/>
</svg>
